P1
#other
10 10
00000000000111111110010000001001000000100100000010010000001001000000100
10000001001111111100000000000