P1
#other
10 10
00000010000011111000001000000000100000000010000000001000000000100000001
11000000010000000000000000000