P1
#other
10 10
00000000000000000000001000010000000010000000010000000010000000010000000
01000010000000000000000000000