P1
#other
10 10
00000000000000000000000000010000000010000000010000000010000000010000000
01000000000000000000000000000