P1
#other
10 10
00001100000011110000001111111000000100000000110000000011000000001000000
00000000000000000000000000000