P1
#other
10 10
00000000000100000000010000000001000000000100000000010000000001000000000
10000000001000000000000000000