P1
#Yes
10 10
00000000001100000110011100110000011110000000110000000011100000011011000
01100011001100000111100000001