P1
#Yes
10 10
00000000000000000000001000010000110011000001111000000011000000011111000
01100010000100001000000000000