P1
#Yes
10 10
00001000010000010010000000110000000011000000010010000010000100000000000
00000000000000000000000000000